<?xml version="1.0" standalone="no"?>
<!DOCTYPE svg PUBLIC "-//W3C//DTD SVG 20010904//EN"
 "http://www.w3.org/TR/2001/REC-SVG-20010904/DTD/svg10.dtd">
<svg version="1.0" xmlns="http://www.w3.org/2000/svg"
 width="446.000000pt" height="316.000000pt" viewBox="0 0 446.000000 316.000000"
 preserveAspectRatio="xMidYMid meet">

<g transform="translate(0.000000,316.000000) scale(0.100000,-0.100000)"
fill="#000000" stroke="none">
<path d="M2640 2350 c0 -73 -4 -120 -10 -120 -6 0 -10 -27 -10 -60 0 -53 2
-60 20 -60 13 0 20 7 20 20 0 11 5 20 10 20 6 0 10 23 10 50 l0 50 50 0 c43 0
50 -3 50 -20 0 -11 5 -20 10 -20 6 0 10 -13 10 -30 0 -16 5 -30 10 -30 6 0 10
-9 10 -20 0 -16 7 -20 30 -20 17 0 30 5 30 10 0 6 -4 10 -10 10 -5 0 -10 9
-10 20 0 11 -4 20 -10 20 -5 0 -10 13 -10 29 0 16 -6 31 -12 34 -8 2 -1 15 20
34 28 27 32 37 32 82 0 42 -5 57 -25 76 -21 22 -33 25 -90 25 -37 0 -65 4 -65
10 0 6 -13 10 -30 10 l-30 0 0 -120z m120 70 c0 -5 12 -10 26 -10 14 0 32 -6
40 -14 16 -17 19 -66 4 -66 -5 0 -10 -9 -10 -20 0 -18 -7 -20 -70 -20 l-70 0
0 70 0 70 40 0 c22 0 40 -4 40 -10z"/>
<path d="M3063 2365 c-13 -13 -23 -31 -23 -40 0 -8 -4 -15 -10 -15 -5 0 -10
-13 -10 -30 0 -16 -4 -30 -10 -30 -5 0 -10 -13 -10 -30 0 -16 -4 -30 -10 -30
-5 0 -10 -9 -10 -19 0 -11 -6 -22 -12 -25 -10 -5 -10 -7 0 -12 6 -3 12 -12 12
-20 0 -24 47 -64 75 -64 14 0 25 -4 25 -10 0 -5 13 -10 29 -10 16 0 32 -6 35
-12 5 -10 7 -10 12 0 3 6 12 12 21 12 19 0 43 24 43 44 0 9 5 16 10 16 6 0 10
9 10 20 0 11 5 20 10 20 6 0 10 14 10 30 0 17 5 30 10 30 6 0 10 14 10 30 0
17 5 30 10 30 6 0 10 11 10 25 0 29 -40 75 -65 75 -8 0 -15 5 -15 10 0 6 -13
10 -30 10 -16 0 -30 5 -30 10 0 6 -17 10 -37 9 -27 0 -45 -7 -60 -24z m97 -25
c0 -5 11 -10 25 -10 14 0 37 -11 50 -25 25 -24 33 -55 15 -55 -5 0 -10 -9 -10
-20 0 -11 -4 -20 -10 -20 -5 0 -10 -13 -10 -30 0 -16 -4 -30 -10 -30 -5 0 -10
-11 -10 -25 0 -29 -51 -88 -58 -67 -2 7 -17 12 -33 12 -16 0 -29 5 -29 10 0 6
-7 10 -16 10 -8 0 -22 6 -30 14 -16 17 -19 66 -4 66 6 0 10 14 10 30 0 17 5
30 10 30 6 0 10 14 10 30 0 17 5 30 10 30 6 0 10 7 10 15 0 9 6 22 13 30 14
16 67 20 67 5z"/>
<path d="M3440 2174 c0 -8 -22 -37 -50 -64 -27 -27 -50 -55 -50 -62 0 -8 -9
-20 -20 -28 -13 -9 -20 -26 -20 -47 0 -27 11 -44 55 -88 48 -49 59 -55 95 -55
36 0 47 6 95 55 30 30 55 60 55 66 0 6 14 24 30 39 42 39 41 80 -5 125 -19 19
-40 35 -47 35 -8 0 -20 9 -28 20 -19 26 -110 30 -110 4z m135 -69 c25 -24 45
-50 45 -56 0 -6 -13 -24 -30 -39 -16 -15 -30 -33 -30 -39 0 -20 -89 -101 -111
-101 -11 0 -34 14 -49 30 -15 17 -35 30 -44 30 -24 0 -21 52 4 70 11 8 20 20
20 27 0 23 103 121 128 122 14 1 39 -16 67 -44z"/>
<path d="M3800 1880 c0 -5 -9 -10 -20 -10 -11 0 -20 -4 -20 -10 0 -5 -9 -10
-20 -10 -11 0 -20 -4 -20 -10 0 -5 -8 -10 -18 -10 -10 0 -24 -9 -32 -20 -8
-11 -22 -20 -32 -20 -10 0 -18 -4 -18 -10 0 -5 -9 -10 -20 -10 -11 0 -20 -4
-20 -10 0 -5 -9 -10 -20 -10 -16 0 -20 -7 -20 -30 0 -16 5 -30 10 -30 6 0 10
5 10 10 0 6 9 10 20 10 11 0 20 5 20 10 0 6 8 10 18 10 10 0 24 9 32 20 8 11
22 20 32 20 10 0 18 5 18 10 0 6 9 10 20 10 11 0 20 5 20 10 0 6 5 10 10 10
22 0 8 -34 -30 -70 -22 -21 -40 -44 -40 -50 0 -6 -18 -29 -40 -50 -22 -21 -40
-46 -40 -54 0 -12 10 -16 40 -16 22 0 40 5 40 10 0 6 33 10 80 10 47 0 80 4
80 10 0 6 14 10 30 10 17 0 30 -4 30 -10 0 -5 -9 -10 -20 -10 -11 0 -20 -4
-20 -10 0 -5 -8 -10 -18 -10 -10 0 -24 -9 -32 -20 -8 -11 -22 -20 -32 -20 -10
0 -18 -4 -18 -10 0 -5 -9 -10 -20 -10 -11 0 -20 -4 -20 -10 0 -5 -9 -10 -20
-10 -16 0 -20 -7 -20 -30 0 -16 5 -30 10 -30 6 0 10 5 10 10 0 6 9 10 20 10
11 0 20 5 20 10 0 6 8 10 18 10 10 0 24 9 32 20 8 11 22 20 32 20 10 0 18 5
18 10 0 6 9 10 20 10 11 0 20 5 20 10 0 6 9 10 20 10 11 0 20 5 20 10 0 6 7
10 16 10 23 0 44 25 44 54 0 25 -1 26 -70 26 -40 0 -70 -4 -70 -10 0 -6 -30
-10 -70 -10 -40 0 -70 -4 -70 -10 0 -5 -4 -10 -10 -10 -24 0 -6 35 40 80 28
27 50 54 50 60 0 6 18 29 40 50 43 42 48 54 26 76 -17 16 -46 19 -46 4z"/>
<path d="M1240 1860 c0 -6 -27 -10 -60 -10 -33 0 -60 -4 -60 -10 0 -5 -18 -10
-40 -10 -22 0 -40 -4 -40 -10 0 -5 -13 -10 -30 -10 -16 0 -30 -4 -30 -10 0 -5
-9 -10 -20 -10 -11 0 -20 -4 -20 -10 0 -5 -7 -10 -15 -10 -20 0 -145 -125
-145 -145 0 -8 -4 -15 -10 -15 -5 0 -10 -9 -10 -20 0 -11 -4 -20 -10 -20 -5 0
-10 -9 -10 -20 0 -11 -4 -20 -10 -20 -5 0 -10 -18 -10 -40 0 -22 -4 -40 -10
-40 -6 0 -10 -57 -10 -150 0 -93 4 -150 10 -150 6 0 10 -18 10 -40 0 -22 5
-40 10 -40 6 0 10 -9 10 -20 0 -11 5 -20 10 -20 6 0 10 -9 10 -20 0 -11 5 -20
10 -20 6 0 10 -7 10 -15 0 -19 104 -125 123 -125 7 0 19 -9 27 -20 8 -11 22
-20 32 -20 10 0 18 -4 18 -10 0 -5 14 -10 30 -10 17 0 30 -4 30 -10 0 -5 14
-10 30 -10 17 0 30 -4 30 -10 0 -6 27 -10 60 -10 33 0 60 -4 60 -10 0 -6 63
-10 170 -10 l170 0 0 100 0 100 -150 0 c-93 0 -150 4 -150 10 0 6 -27 10 -60
10 -33 0 -60 4 -60 10 0 6 -13 10 -28 10 -16 0 -34 8 -42 20 -8 11 -20 20 -28
20 -18 0 -82 66 -82 85 0 8 -4 15 -10 15 -5 0 -10 14 -10 30 0 17 -4 30 -10
30 -6 0 -10 47 -10 120 0 73 4 120 10 120 6 0 10 14 10 30 0 17 5 30 10 30 6
0 10 7 10 15 0 20 105 125 125 125 8 0 15 5 15 10 0 6 14 10 30 10 17 0 30 5
30 10 0 6 37 10 90 10 l90 0 0 -120 0 -120 110 0 110 0 0 230 0 230 -160 0
c-100 0 -160 -4 -160 -10z"/>
<path d="M2080 1860 c0 -5 -22 -10 -50 -10 -27 0 -50 -4 -50 -10 0 -5 -13 -10
-30 -10 -16 0 -30 -4 -30 -10 0 -5 -8 -10 -18 -10 -10 0 -24 -9 -32 -20 -8
-11 -20 -20 -27 -20 -19 0 -143 -126 -143 -145 0 -8 -4 -15 -10 -15 -5 0 -10
-9 -10 -20 0 -11 -4 -20 -10 -20 -5 0 -10 -9 -10 -20 0 -11 -4 -20 -10 -20 -5
0 -10 -13 -10 -30 0 -16 -4 -30 -10 -30 -5 0 -10 -22 -10 -50 0 -27 -4 -50
-10 -50 -6 0 -10 -30 -10 -70 0 -40 4 -70 10 -70 6 0 10 -22 10 -50 0 -27 5
-50 10 -50 6 0 10 -13 10 -30 0 -16 5 -30 10 -30 6 0 10 -13 10 -28 0 -16 8
-34 20 -42 11 -8 20 -21 20 -30 0 -9 9 -22 20 -30 11 -8 20 -22 20 -32 0 -10
7 -18 16 -18 8 0 33 -18 54 -40 21 -22 46 -40 54 -40 9 0 16 -4 16 -10 0 -5 9
-10 20 -10 11 0 20 -4 20 -10 0 -5 9 -10 20 -10 11 0 20 -4 20 -10 0 -5 18
-10 40 -10 22 0 40 -4 40 -10 0 -6 43 -10 110 -10 67 0 110 4 110 10 0 6 18
10 40 10 22 0 40 5 40 10 0 6 13 10 28 10 16 0 34 8 42 20 8 11 21 20 30 20 9
0 22 9 30 20 8 11 20 20 28 20 16 0 62 45 62 61 0 6 14 24 30 39 17 15 30 35
30 44 0 9 5 16 10 16 6 0 10 14 10 30 0 17 5 30 10 30 6 0 10 9 10 20 0 11 5
20 10 20 6 0 10 23 10 50 0 28 5 50 10 50 6 0 10 37 10 90 0 53 -4 90 -10 90
-5 0 -10 18 -10 40 0 22 -4 40 -10 40 -5 0 -10 14 -10 30 0 17 -4 30 -10 30
-5 0 -10 13 -10 28 0 16 -8 34 -20 42 -11 8 -20 20 -20 27 0 19 -146 163 -165
163 -8 0 -15 5 -15 10 0 6 -9 10 -20 10 -11 0 -20 5 -20 10 0 6 -13 10 -30 10
-16 0 -30 5 -30 10 0 6 -22 10 -50 10 -27 0 -50 5 -50 10 0 6 -30 10 -70 10
-40 0 -70 -4 -70 -10z m120 -200 c0 -5 18 -10 40 -10 22 0 40 -4 40 -10 0 -5
8 -10 18 -10 10 0 24 -9 32 -20 8 -11 20 -20 28 -20 17 0 42 -25 42 -42 0 -8
9 -20 20 -28 11 -8 20 -22 20 -32 0 -10 5 -18 10 -18 6 0 10 -13 10 -30 0 -16
5 -30 10 -30 6 0 10 -43 10 -110 0 -67 -4 -110 -10 -110 -5 0 -10 -13 -10 -30
0 -16 -4 -30 -10 -30 -5 0 -10 -9 -10 -20 0 -11 -4 -20 -10 -20 -5 0 -10 -7
-10 -15 0 -19 -64 -85 -82 -85 -8 0 -20 -9 -28 -20 -8 -12 -26 -20 -42 -20
-15 0 -28 -4 -28 -10 0 -6 -37 -10 -90 -10 -53 0 -90 4 -90 10 0 6 -13 10 -28
10 -16 0 -34 8 -42 20 -8 11 -20 20 -28 20 -17 0 -62 45 -62 62 0 8 -9 20 -20
28 -11 8 -20 22 -20 32 0 10 -4 18 -10 18 -5 0 -10 18 -10 40 0 22 -4 40 -10
40 -6 0 -10 37 -10 90 0 53 4 90 10 90 6 0 10 14 10 30 0 17 5 30 10 30 6 0
10 9 10 20 0 11 5 20 10 20 6 0 10 7 10 15 0 9 25 40 55 70 30 30 61 55 70 55
8 0 15 5 15 10 0 6 18 10 40 10 22 0 40 5 40 10 0 6 23 10 50 10 28 0 50 -4
50 -10z"/>
<path d="M2140 1400 c0 -5 -12 -10 -26 -10 -29 0 -54 -21 -54 -44 0 -9 -4 -16
-10 -16 -5 0 -10 -13 -10 -30 0 -16 5 -30 10 -30 6 0 10 -7 10 -15 0 -32 47
-65 90 -65 55 0 110 52 110 105 0 19 -4 35 -10 35 -5 0 -10 7 -10 16 0 23 -25
44 -54 44 -14 0 -26 5 -26 10 0 6 -4 10 -10 10 -5 0 -10 -4 -10 -10z"/>
<path d="M2760 1300 l0 -570 100 0 100 0 0 230 0 230 230 0 230 0 0 110 0 110
-230 0 -230 0 0 120 0 120 160 0 160 0 0 110 0 110 -260 0 -260 0 0 -570z"/>
<path d="M4020 1390 c0 -16 -7 -20 -30 -20 -16 0 -30 -4 -30 -10 0 -5 -22 -10
-50 -10 -27 0 -50 -4 -50 -10 0 -6 -27 -10 -60 -10 -33 0 -60 4 -60 10 0 6 -9
10 -20 10 -11 0 -20 -4 -20 -10 0 -5 5 -10 10 -10 6 0 10 -22 10 -50 0 -43 3
-50 20 -50 12 0 20 7 20 16 0 28 27 44 74 44 25 0 46 5 46 10 0 6 23 10 50 10
28 0 50 5 50 10 0 18 35 11 50 -10 23 -32 30 -24 30 40 0 53 -2 60 -20 60 -13
0 -20 -7 -20 -20z"/>
<path d="M3740 1031 c0 -70 -4 -101 -12 -103 -9 -3 -8 -9 4 -21 22 -22 28 -21
28 3 0 11 5 20 10 20 6 0 10 33 10 80 l0 80 30 0 c17 0 30 -4 30 -10 0 -5 14
-10 30 -10 l30 0 0 -80 c0 -73 2 -80 20 -80 18 0 20 7 20 80 l0 80 50 0 50 0
0 -100 c0 -55 3 -100 6 -100 3 0 12 6 20 14 10 11 14 42 14 120 l0 106 -100 0
c-60 0 -100 4 -100 10 0 6 -30 10 -70 10 l-70 0 0 -99z"/>
</g>
</svg>
